<svg xmlns="http://www.w3.org/2000/svg" viewBox="0 0 288 259" preserveAspectRatio="none" fill="none">
  <!-- Contorno da foto dalmata.webp; o exterior permanece transparente. -->
  <defs>
    <filter id="borda-suave" x="-2%" y="-2%" width="104%" height="104%">
      <feGaussianBlur stdDeviation="0.35" />
    </filter>
  </defs>
  <path fill="white" filter="url(#borda-suave)" d="
    M 0 59
    C 5 55 12 53 17 48
    C 24 47 31 46 38 40
    C 40 33 48 29 57 23
    C 64 20 73 22 81 21
    C 90 16 96 16 102 11
    C 111 6 119 4 127 1
    C 134 -1 143 -1 151 3
    C 162 7 174 11 181 21
    C 184 23 187 26 191 28
    C 198 26 203 23 208 22
    C 214 21 220 30 225 36
    C 229 41 228 45 233 48
    C 241 48 247 52 250 59
    C 256 65 263 75 268 82
    C 275 92 271 106 266 115
    C 263 116 259 116 257 117
    C 261 120 260 125 256 130
    C 250 137 239 143 231 148
    C 226 152 224 158 224 166
    C 219 164 215 153 211 149
    C 209 160 210 170 213 181
    C 218 192 224 204 227 216
    C 230 220 232 222 237 224
    C 244 224 250 226 255 230
    C 261 234 263 244 264 251
    L 266 259
    H 0
    L 0 250
    C 5 246 7 239 11 233
    C 16 229 23 228 31 229
    C 37 225 44 224 51 226
    C 50 224 49 222 49 220
    C 49 210 51 203 54 196
    C 58 189 62 181 64 174
    C 69 164 74 156 76 147
    C 73 141 67 134 62 130
    C 58 140 56 151 50 159
    C 47 163 43 166 39 166
    C 37 159 37 149 34 144
    C 28 137 18 134 11 126
    C 5 120 2 115 0 108
    Z
  " />
</svg>
